<svg xmlns="http://www.w3.org/2000/svg" fill="inherit" height="40" width="auto" viewBox="0 0 11000 2500"><path d="M7898.4 1903.3v-361.5h132.9l253.1 361.5H8553l3.2-2.3-280.6-400.7 13-6.9c25.8-15.1 49.6-33.5 71-54.9 32.3-32.3 57.8-70 75.5-112 18.4-43.5 27.8-89.7 27.8-137.3 0-47.5-9.3-93.7-27.8-137.3-17.8-42-43.2-79.7-75.5-112s-70-57.8-112-75.5c-43.5-18.4-89.7-27.8-137.3-27.8h-435.8v1066.6h223.9zm0-842.7h211.9c70.9 0 128.7 57.7 128.7 128.7s-57.7 128.7-128.7 128.7h-211.9v-257.4zM5553.1 837.4h-877.6v223.9h326.8v842h223.9v-842h326.9zm4657.7 0h-877.5v223.9h326.8v842H9884v-842h326.8zM3129.3 742V598.6h-223.9v255.6zm-223.9 207.3v954h223.9V837.1zM6053.6 742V598.6h-223.9v255.6zm-223.9 207.3v954h223.9V837.1zm3227-207.3V598.6h-223.9v255.6zm-223.9 207.3v954h223.9V837.1zM10711.4 742V598.6h-224v255.6zm-224 207.3v954h224V837.1zM4173.9 837v674.6l-471.8-673.8v-.8h-223.9v1066.3h223.9v-675l471.8 673.7v1.3h223.9V837zm2990.3 468.3h-301.6v223.9H7127c-12.8 21.2-28.3 41-46.3 59-58.3 58.3-135.7 90.3-218.1 90.3s-159.9-32.1-218.1-90.3-90.3-135.7-90.3-218.1c0-81.7 31.6-158.7 89-216.8 58.4-59.1 136.3-91.7 219.4-91.7 54.2 0 107.4 14.2 154 41.1 42.1 24.3 78.1 58.5 104.7 99.2l201-100.7c-1.1-1.9-2.2-3.7-3.3-5.6-46.5-77.2-112.3-141.8-190.3-186.9-80.6-46.5-172.5-71.1-266-71.1-72.4 0-142.6 14.3-208.8 42.5-63.8 27.2-121 66.2-170 115.7-48.2 48.8-86 105.4-112.4 168.4-27.4 65.3-41.2 134.5-41.2 205.7 0 71.8 14.1 141.6 41.9 207.3 26.8 63.4 65.2 120.3 114 169.2 48.9 48.9 105.8 87.2 169.2 114 65.7 27.8 135.4 41.9 207.3 41.9s141.6-14.1 207.3-41.9c63.4-26.8 120.3-65.2 169.2-114 48.9-48.9 87.2-105.8 114-169.2 27.8-65.7 41.9-135.4 41.9-207.3 0-21.9-1.4-43.7-4-65.3h-226.9c-.1.4-.1.6 0 .7zm-6468.2-39c-66.8-8.2-128.6-38.2-176.9-86.5-57.2-57.2-88.8-133.3-88.8-214.3 0-59.1 17.1-116.2 48.8-165 114.2 57.2 356.2 178.4 536.2 268.6l158.2-79.3c-207.7-104-730.1-365.6-730.1-365.6l-36.2 39C330.8 745.6 288.6 853 288.6 965.6c0 60 11.8 118.3 35 173.1 22.4 53 54.5 100.5 95.3 141.4 40.8 40.8 88.4 72.9 141.4 95.3 44.8 18.9 91.8 30.2 140.1 33.8-4.5-47.5-6-95.2-4.4-142.9z"></path><path d="m2129.8 663.1-36.2-39-1164.4 583.4c-42.9 21.5-87.3 38.3-131.9 50-5.8 1.5-11.1 2.8-16 4-2.4 60.4.4 120.7 8.4 180.5 5.7 40.5 13.4 80.5 23.3 120 21 84 51.4 165.8 90.6 243.2 38.5 76 85.5 148 139.7 214 53.9 65.6 115.1 125.5 181.9 177.9l43.8 34.4 43.8-34.4c66.8-52.5 128-112.3 181.9-177.9 54.2-66 101.2-138 139.7-214 39.2-77.4 69.6-159.2 90.6-243.2 12.8-51.3 22.1-103.7 27.8-156.6h.1c4.7-47.7 6.1-95.7 4.2-143.7-5.2-1.2-10.9-2.6-17.1-4.2-44.6-11.7-89-28.5-131.9-50l-86.2-43.2-158.2 79.3 180.9 90.6c22.9 11.5 46.1 21.8 69.6 31-4.6 54.9-13.5 109.3-26.8 162.5-18.4 73.7-45.1 145.6-79.5 213.5-33.8 66.8-75.1 130-122.7 188-35.4 43-74.3 83.3-116.1 120.1-41.9-36.8-80.8-77-116.1-120.1-47.7-58-88.9-121.3-122.7-188-34.4-67.9-61.1-139.7-79.5-213.5-13.3-53.2-22.2-107.7-26.8-162.7 23.3-9.2 46.4-19.5 69-30.8 0 0 929.3-465.5 1065.2-533.6 31.7 48.8 48.8 105.8 48.8 165 0 80.9-31.5 157-88.8 214.3-48.1 48.1-109.5 78-175.9 86.4 1.6 47.7.1 95.4-4.4 142.9 48-3.6 94.7-14.9 139.1-33.7 53-22.4 100.5-54.5 141.4-95.3 40.8-40.8 72.9-88.4 95.3-141.4 23.2-54.9 35-113.1 35-173.1-.2-112.7-42.3-220.1-118.9-302.6zm-601.4-81.5c22.5-45.6 55.9-84.8 97.9-114.7 52.2-37.1 113.8-56.7 178.1-56.7V268.5c-93.9 0-183.9 28.7-260.2 82.9-36.7 26.1-69.2 57.4-96.6 93.2-5.7 7.4-11.1 15-16.3 22.7-37-38.2-76.6-74.1-118.6-107.1l-43.8-34.4-45.3 35.5c-37.9 29.9-74.4 62.5-108.4 96.9-3.1 3.1-6.1 6.2-9.1 9.4-5.3-7.8-10.8-15.6-16.6-23.1-27.4-35.7-59.9-67.1-96.6-93.2-76.3-54.2-166.3-82.9-260.2-82.9v141.7c64.3 0 125.9 19.6 178.1 56.7 42.2 30 75.7 69.4 98.2 115.1-11.9 16-23.4 32.2-34.4 48.7-27.3 40.8-52 83.4-73.9 127.3l126.7 63.5c48.4-97.1 111.7-185.6 188.7-263.6 17-17.2 34.6-33.8 52.8-49.8 100 87.9 182.1 194.6 241.4 313.2l126.7-63.5c-30.9-61.7-67.3-120.7-108.6-176.1z"></path></svg>